<mxfile host="app.diagrams.net" modified="2024-03-03T00:24:27.322Z" agent="Mozilla/5.0 (Windows NT 10.0; Win64; x64) AppleWebKit/537.36 (KHTML, like Gecko) Chrome/121.0.0.0 Safari/537.36" etag="4KFw7oyzRmeJELACApxv" version="23.1.8" type="github">
  <diagram name="第 1 页" id="m4R4y16XppHf2_eSmbMv">
    <mxGraphModel dx="1050" dy="574" grid="1" gridSize="10" guides="1" tooltips="1" connect="1" arrows="1" fold="1" page="1" pageScale="1" pageWidth="827" pageHeight="1169" math="0" shadow="0">
      <root>
        <mxCell id="0" />
        <mxCell id="1" parent="0" />
        <mxCell id="ozoMpvkCseTEtSfeOwfC-1" style="rounded=0;orthogonalLoop=1;jettySize=auto;html=1;exitX=1;exitY=0.3333333333333333;exitDx=0;exitDy=0;exitPerimeter=0;entryX=0;entryY=0.5;entryDx=0;entryDy=0;" parent="1" source="ozoMpvkCseTEtSfeOwfC-5" target="ozoMpvkCseTEtSfeOwfC-6" edge="1">
          <mxGeometry relative="1" as="geometry" />
        </mxCell>
        <mxCell id="ozoMpvkCseTEtSfeOwfC-4" style="rounded=0;orthogonalLoop=1;jettySize=auto;html=1;exitX=1;exitY=0.3333333333333333;exitDx=0;exitDy=0;exitPerimeter=0;entryX=0;entryY=0.5;entryDx=0;entryDy=0;" parent="1" source="ozoMpvkCseTEtSfeOwfC-5" target="ozoMpvkCseTEtSfeOwfC-17" edge="1">
          <mxGeometry relative="1" as="geometry" />
        </mxCell>
        <mxCell id="LXSDuCBRp3da6oVukBno-4" style="rounded=0;orthogonalLoop=1;jettySize=auto;html=1;exitX=1;exitY=0.3333333333333333;exitDx=0;exitDy=0;exitPerimeter=0;entryX=0;entryY=0.5;entryDx=0;entryDy=0;" edge="1" parent="1" source="ozoMpvkCseTEtSfeOwfC-5" target="LXSDuCBRp3da6oVukBno-1">
          <mxGeometry relative="1" as="geometry" />
        </mxCell>
        <mxCell id="LXSDuCBRp3da6oVukBno-11" style="rounded=0;orthogonalLoop=1;jettySize=auto;html=1;exitX=1;exitY=0.3333333333333333;exitDx=0;exitDy=0;exitPerimeter=0;entryX=0;entryY=0.5;entryDx=0;entryDy=0;" edge="1" parent="1" source="ozoMpvkCseTEtSfeOwfC-5" target="LXSDuCBRp3da6oVukBno-10">
          <mxGeometry relative="1" as="geometry" />
        </mxCell>
        <mxCell id="ozoMpvkCseTEtSfeOwfC-5" value="运维人员" style="shape=umlActor;verticalLabelPosition=bottom;verticalAlign=top;html=1;outlineConnect=0;" parent="1" vertex="1">
          <mxGeometry x="250" y="320" width="30" height="60" as="geometry" />
        </mxCell>
        <mxCell id="ozoMpvkCseTEtSfeOwfC-6" value="3.1 用户权限管理" style="ellipse;whiteSpace=wrap;html=1;" parent="1" vertex="1">
          <mxGeometry x="354" y="160" width="120" height="80" as="geometry" />
        </mxCell>
        <mxCell id="ozoMpvkCseTEtSfeOwfC-8" style="rounded=0;orthogonalLoop=1;jettySize=auto;html=1;exitX=0;exitY=0.5;exitDx=0;exitDy=0;entryX=1;entryY=0.5;entryDx=0;entryDy=0;dashed=1;" parent="1" source="ozoMpvkCseTEtSfeOwfC-10" target="ozoMpvkCseTEtSfeOwfC-6" edge="1">
          <mxGeometry relative="1" as="geometry" />
        </mxCell>
        <mxCell id="LXSDuCBRp3da6oVukBno-2" style="rounded=0;orthogonalLoop=1;jettySize=auto;html=1;exitX=0;exitY=0.5;exitDx=0;exitDy=0;entryX=1;entryY=0.5;entryDx=0;entryDy=0;dashed=1;" edge="1" parent="1" source="ozoMpvkCseTEtSfeOwfC-10" target="ozoMpvkCseTEtSfeOwfC-17">
          <mxGeometry relative="1" as="geometry" />
        </mxCell>
        <mxCell id="LXSDuCBRp3da6oVukBno-8" style="rounded=0;orthogonalLoop=1;jettySize=auto;html=1;exitX=0;exitY=0.5;exitDx=0;exitDy=0;entryX=1;entryY=0.5;entryDx=0;entryDy=0;dashed=1;" edge="1" parent="1" source="ozoMpvkCseTEtSfeOwfC-10" target="LXSDuCBRp3da6oVukBno-1">
          <mxGeometry relative="1" as="geometry" />
        </mxCell>
        <mxCell id="LXSDuCBRp3da6oVukBno-13" style="rounded=0;orthogonalLoop=1;jettySize=auto;html=1;exitX=0;exitY=0.5;exitDx=0;exitDy=0;entryX=1;entryY=0.5;entryDx=0;entryDy=0;dashed=1;" edge="1" parent="1" source="ozoMpvkCseTEtSfeOwfC-10" target="LXSDuCBRp3da6oVukBno-10">
          <mxGeometry relative="1" as="geometry" />
        </mxCell>
        <mxCell id="ozoMpvkCseTEtSfeOwfC-10" value="4. 身份认证" style="ellipse;whiteSpace=wrap;html=1;" parent="1" vertex="1">
          <mxGeometry x="566" y="300" width="120" height="80" as="geometry" />
        </mxCell>
        <mxCell id="ozoMpvkCseTEtSfeOwfC-11" value="&amp;lt;&amp;lt;extend&amp;gt;&amp;gt;" style="text;html=1;strokeColor=none;fillColor=none;align=center;verticalAlign=middle;whiteSpace=wrap;rounded=0;rotation=60;" parent="1" vertex="1">
          <mxGeometry x="485.5" y="240" width="70" height="25" as="geometry" />
        </mxCell>
        <mxCell id="ozoMpvkCseTEtSfeOwfC-17" value="3.2 查看报表" style="ellipse;whiteSpace=wrap;html=1;" parent="1" vertex="1">
          <mxGeometry x="354" y="250" width="120" height="80" as="geometry" />
        </mxCell>
        <mxCell id="ozoMpvkCseTEtSfeOwfC-18" value="&amp;lt;&amp;lt;extend&amp;gt;&amp;gt;" style="text;html=1;strokeColor=none;fillColor=none;align=center;verticalAlign=middle;whiteSpace=wrap;rounded=0;rotation=30;" parent="1" vertex="1">
          <mxGeometry x="479.5" y="290" width="76" height="25" as="geometry" />
        </mxCell>
        <mxCell id="LXSDuCBRp3da6oVukBno-1" value="5.1 APK数据更新" style="ellipse;whiteSpace=wrap;html=1;" vertex="1" parent="1">
          <mxGeometry x="354" y="340" width="120" height="80" as="geometry" />
        </mxCell>
        <mxCell id="LXSDuCBRp3da6oVukBno-9" value="&amp;lt;&amp;lt;extend&amp;gt;&amp;gt;" style="text;html=1;strokeColor=none;fillColor=none;align=center;verticalAlign=middle;whiteSpace=wrap;rounded=0;rotation=-55;" vertex="1" parent="1">
          <mxGeometry x="490" y="395" width="76" height="25" as="geometry" />
        </mxCell>
        <mxCell id="LXSDuCBRp3da6oVukBno-10" value="5.2 模型重训练" style="ellipse;whiteSpace=wrap;html=1;" vertex="1" parent="1">
          <mxGeometry x="354" y="430" width="120" height="80" as="geometry" />
        </mxCell>
        <mxCell id="LXSDuCBRp3da6oVukBno-14" value="&amp;lt;&amp;lt;extend&amp;gt;&amp;gt;" style="text;html=1;strokeColor=none;fillColor=none;align=center;verticalAlign=middle;whiteSpace=wrap;rounded=0;rotation=-25;" vertex="1" parent="1">
          <mxGeometry x="476" y="340.5" width="76" height="25" as="geometry" />
        </mxCell>
      </root>
    </mxGraphModel>
  </diagram>
</mxfile>
